<svg width="100%" height="100%" xmlns="http://www.w3.org/2000/svg">
<g clip-path="url(#clip0_1165_676)">
<path d="M1966 0H0V635H1966V0Z" fill="#FBF1F1"/>
<path d="M1968.12 605.635C1964.03 614.314 1957.78 625.07 1950.34 635H684.555C690.909 628.58 697.601 622.565 704.376 617.042C773.294 560.849 857.852 526.195 926.111 469.205C937.274 459.886 948.251 449.515 956.217 437.501C960.725 430.704 964.267 423.382 966.336 415.422C986.046 339.635 896.937 349.74 853.459 347.377C794.894 344.193 734.701 332.901 686.537 299.443C660.088 281.072 638.107 254.764 625.581 225.26C625.192 224.339 624.811 223.414 624.438 222.489C615.022 199.032 611.594 173.669 616.626 148.739C625.482 104.87 657.928 69.5969 692.681 41.3913C695.941 38.747 699.229 36.1424 702.549 33.5815C718.141 21.5394 734.379 10.3786 751.103 0H1448.24C1482.77 60.5881 1465.79 142.787 1499.98 204.888C1528.27 256.277 1586.67 284.053 1644.11 296.008C1687.24 304.981 1731.51 306.903 1775.22 312.303C1789.73 314.093 1804.18 316.265 1818.51 319.207C1875.98 331.011 1934.47 358.443 1963.17 409.605C1978.44 436.834 1983.95 468.514 1985.43 499.693C1987.14 535.796 1983.52 572.935 1968.12 605.635Z" fill="#F4D6D4"/>
<path d="M1775.22 312.303C1772.8 333.926 1765.67 355.298 1754.83 374.042C1729.29 418.197 1686.46 449.777 1641.61 474.08C1619.39 486.122 1596.07 496.807 1571.21 501.353C1519.71 510.763 1466.16 492.598 1423.18 462.709C1394.73 442.925 1369.6 417.657 1353.21 387.129C1327.59 339.401 1325.06 281.771 1336.85 228.901C1348.63 176.031 1373.72 127.104 1401.15 80.4004C1415.07 56.7051 1429.74 33.2401 1439.6 7.58741C1440.55 5.11783 1441.48 2.58472 1442.38 0H1448.24C1482.77 60.5881 1465.79 142.787 1499.98 204.888C1528.27 256.277 1586.67 284.053 1644.11 296.008C1687.24 304.981 1731.5 306.903 1775.22 312.303Z" fill="url(#paint0_linear_1165_676)"/>
<path d="M1100.1 341.858C1066.79 385.946 1005.93 420.111 956.217 437.501C960.724 430.704 964.267 423.382 966.336 415.422C986.046 339.635 896.937 349.74 853.459 347.377C794.894 344.193 734.701 332.901 686.537 299.443C660.088 281.072 638.107 254.764 625.581 225.26C628.56 220.726 635.688 217.597 648.936 213.075C691.958 198.4 737.54 194.303 782.043 186.394C838.531 176.349 895.781 170.592 953.143 169.226C984.096 168.487 1015.61 169.107 1045.13 178.457C1074.65 187.807 1102.29 207.044 1115.38 235.099C1133.56 274.064 1123.81 310.472 1100.1 341.858Z" fill="url(#paint1_linear_1165_676)"/>
</g>
<defs>
<linearGradient id="paint0_linear_1165_676" x1="1559.96" y1="259.016" x2="1442.42" y2="691.139" gradientUnits="userSpaceOnUse">
<stop stop-color="#F4D6D4"/>
<stop offset="1" stop-color="#E2ACA8"/>
</linearGradient>
<linearGradient id="paint1_linear_1165_676" x1="843.281" y1="330.872" x2="985.268" y2="18.0879" gradientUnits="userSpaceOnUse">
<stop stop-color="#F4D6D4"/>
<stop offset="1" stop-color="#E2ACA8"/>
</linearGradient>
<clipPath id="clip0_1165_676">
<rect width="1966" height="437" fill="white"/>
</clipPath>
</defs>
</svg>
